<?xml version="1.0" encoding="UTF-8" standalone="no"?>
<svg
   width="202.46991"
   zoomAndPan="magnify"
   viewBox="0 0 151.85243 163.32965"
   height="217.77287"
   preserveAspectRatio="xMidYMid"
   version="1.0"
   id="svg121"
   sodipodi:docname="logoIcon.svg"
   xml:space="preserve"
   inkscape:version="1.4 (86a8ad7, 2024-10-11)"
   xmlns:inkscape="http://www.inkscape.org/namespaces/inkscape"
   xmlns:sodipodi="http://sodipodi.sourceforge.net/DTD/sodipodi-0.dtd"
   xmlns="http://www.w3.org/2000/svg"
   xmlns:svg="http://www.w3.org/2000/svg"><sodipodi:namedview
     id="namedview121"
     pagecolor="#ffffff"
     bordercolor="#666666"
     borderopacity="1.0"
     inkscape:showpageshadow="2"
     inkscape:pageopacity="0.0"
     inkscape:pagecheckerboard="0"
     inkscape:deskcolor="#d1d1d1"
     inkscape:zoom="0.806"
     inkscape:cx="247.51861"
     inkscape:cy="86.228288"
     inkscape:window-width="2560"
     inkscape:window-height="1494"
     inkscape:window-x="-11"
     inkscape:window-y="-11"
     inkscape:window-maximized="1"
     inkscape:current-layer="svg121" /><defs
     id="defs7"><g
       id="g1" /><clipPath
       id="eca45cd202"><path
         d="M 193,56 H 331 V 219.78516 H 193 Z m 0,0"
         clip-rule="nonzero"
         id="path1" /></clipPath><clipPath
       id="b9e1b9d189"><path
         d="m 178,112 h 107 v 58 H 178 Z m 0,0"
         clip-rule="nonzero"
         id="path2" /></clipPath><clipPath
       id="8caecf04ef"><path
         d="m 177.92578,119.34375 102.01953,-21.453125 20.3711,96.878905 -102.01563,21.45703 z m 0,0"
         clip-rule="nonzero"
         id="path3" /></clipPath><clipPath
       id="caee9cc4dd"><path
         d="m 177.92578,119.34375 102.01953,-21.453125 20.3711,96.878905 -102.01563,21.45703 z m 0,0"
         clip-rule="nonzero"
         id="path4" /></clipPath><clipPath
       id="7144c685be"><path
         d="m 208,132 h 62 v 72 h -62 z m 0,0"
         clip-rule="nonzero"
         id="path5" /></clipPath><clipPath
       id="9138785161"><path
         d="m 177.92578,119.34375 102.01953,-21.453125 20.3711,96.878905 -102.01563,21.45703 z m 0,0"
         clip-rule="nonzero"
         id="path6" /></clipPath><clipPath
       id="ba36648c98"><path
         d="m 177.92578,119.34375 102.01953,-21.453125 20.3711,96.878905 -102.01563,21.45703 z m 0,0"
         clip-rule="nonzero"
         id="path7" /></clipPath></defs><g
     clip-path="url(#eca45cd202)"
     id="g8"
     inkscape:export-filename="..\Desktop\CropComplianceLogo.png"
     inkscape:export-xdpi="96"
     inkscape:export-ydpi="96"
     transform="translate(-178.17112,-56.408633)"><path
       fill="#68a52c"
       d="m 329.08984,99.835938 c -1.67968,-4.613282 -7.54687,-5.03125 -7.54687,-5.03125 -32.28125,-5.449219 -47.57031,-32.28125 -53.01953,-35.636719 -5.44922,-3.355469 -6.39453,-2.621094 -6.39453,-2.621094 0,0 -2.41407,-1.046875 -6.8125,2.621094 -4.91407,4.097656 -21.39063,30.183593 -53.67579,35.636719 0,0 -5.86718,0.417968 -7.54687,5.03125 -1.67578,4.609372 2.09766,94.750002 70.01172,119.902342 73.37109,-32.28516 66.66015,-115.29297 64.98437,-119.902342 z m 0,0"
       fill-opacity="1"
       fill-rule="nonzero"
       id="path8"
       style="fill:#14a419;fill-opacity:1" /></g><path
     fill="#68a52c"
     d="m 139.79763,49.755427 c -1.40234,-3.84375 -6.30078,-4.19531 -6.30078,-4.19531 -26.9336,-4.546875 -39.69141,-26.9375 -44.23828,-29.738281 -4.54688,-2.796875 -5.33594,-2.1875 -5.33594,-2.1875 0,0 -2.01172,-0.871094 -5.68359,2.1875 -4.10157,3.417969 -17.85157,25.191406 -44.78907,29.738281 0,0 -4.89843,0.35156 -6.29687,4.19531 -1.39844,3.85157 1.75,79.062503 58.42187,100.050783 61.21875,-26.93359 55.6211,-96.199213 54.22266,-100.050783 z m 0,0"
     fill-opacity="1"
     fill-rule="nonzero"
     id="path9"
     style="fill:#14a419;fill-opacity:1" /><path
     fill="#471b00"
     d="m 133.49685,45.560117 c -26.9336,-4.546875 -39.69141,-26.9375 -44.23828,-29.738281 0,0 5.27343,26.347656 41.11718,34.523441 0,0 8.375,65.492183 -50.28125,97.187503 1.76954,0.8125 3.59375,1.57812 5.48047,2.27343 61.21875,-26.93359 55.6211,-96.199213 54.22266,-100.050783 -1.40234,-3.84375 -6.30078,-4.19531 -6.30078,-4.19531 z m 0,0"
     fill-opacity="1"
     fill-rule="nonzero"
     id="path10"
     style="fill:#d4e0e9;fill-opacity:1" /><g
     clip-path="url(#b9e1b9d189)"
     id="g13"
     transform="translate(-178.17112,-56.408633)"><g
       clip-path="url(#8caecf04ef)"
       id="g12"><g
         clip-path="url(#caee9cc4dd)"
         id="g11"><path
           fill="#bfe063"
           d="m 249.72656,167.78516 c 0,0 -19.33203,4.71875 -40.84375,-7.10547 -21.50781,-11.82422 -30.54687,-40.87891 -30.71094,-40.62891 -0.16406,0.25391 26.4375,-11.16406 50.65625,3.05469 24.21875,14.21875 20.89844,44.67969 20.89844,44.67969 z m 33.64063,-27.65235 c 3.375,-12.82422 -0.22657,-27.54687 -0.22657,-27.54687 0,0 -18.76562,3.80469 -26.45312,18.83593 -9.95313,19.38282 -0.27734,37.88672 -0.27734,37.88672 0,0 22.0664,-10.64453 26.95703,-29.17578 z m 0,0"
           fill-opacity="1"
           fill-rule="nonzero"
           id="path11"
           style="fill:#98e02a;fill-opacity:1" /></g></g></g><g
     clip-path="url(#7144c685be)"
     id="g16"
     transform="translate(-178.17112,-56.408633)"><g
       clip-path="url(#9138785161)"
       id="g15"><g
         clip-path="url(#ba36648c98)"
         id="g14"><path
           fill="#471b00"
           d="m 268.34766,133.38281 c -0.80469,-0.55469 -1.91016,-0.32031 -2.46485,0.48438 -8.70703,13.11328 -11.40625,27.09765 -11.28515,40.74218 -6.02735,-14.21093 -18.90235,-35.01171 -44.21485,-42.05468 -0.96094,-0.26953 -1.92578,0.29687 -2.16797,1.21484 -0.27343,0.92578 0.29688,1.92578 1.21485,2.16797 35.34375,9.85156 45.17187,48.32812 46.22265,52.98828 0.57813,4.46875 1.38672,8.82031 2.24219,13.05469 0.20313,0.96875 1.125,1.57031 2.09375,1.36719 0.93359,-0.19532 1.57031,-1.125 1.36719,-2.09766 -0.79688,-3.95313 -1.53516,-7.99219 -2.11719,-12.13672 0.004,-0.14844 0.0117,-0.29297 -0.0195,-0.42969 l -0.0781,-0.38281 c -2.24609,-17.21094 -1.48046,-35.74609 9.67579,-52.51953 0.5625,-0.76953 0.33593,-1.84375 -0.46875,-2.39844 z m 0,0"
           fill-opacity="1"
           fill-rule="nonzero"
           id="path13"
           style="fill:#d4e0e9;fill-opacity:1" /></g></g></g><g
     fill="#471b00"
     fill-opacity="1"
     id="g40"
     transform="translate(-178.17112,-56.408633)"><g
       transform="translate(273.50695,276.09991)"
       id="g39"><g
         id="g38" /></g></g><g
     fill="#471b00"
     fill-opacity="1"
     id="g52"
     transform="translate(-178.17112,-56.408633)"><g
       transform="translate(291.2855,276.09991)"
       id="g51"><g
         id="g50" /></g></g><g
     fill="#471b00"
     fill-opacity="1"
     id="g91"
     transform="translate(-178.17112,-56.408633)"><g
       transform="translate(133.17964,248.89996)"
       id="g90"><g
         id="g89" /></g></g></svg>
